<?xml version="1.0" ?><svg viewBox="0 0 100 100" xmlns="http://www.w3.org/2000/svg"><title/><g data-name="Layer 1" id="Layer_1"><path d="M81,79H77a3,3,0,0,0-3-3H71.77a27.06,27.06,0,0,0-1.53-6.17l2.06-1.18a3,3,0,0,0,1.1-4.1l-1-1.73a3,3,0,0,0-4.1-1.1l-1.94,1.12A27.6,27.6,0,0,0,62,58.27l1.19-2.07a3,3,0,0,0-1.1-4.1l-1.73-1a3,3,0,0,0-4.1,1.1l-1.11,1.93A27.88,27.88,0,0,0,49,52.37V50a3,3,0,0,0-3-3H44a3,3,0,0,0-3,3v2.23a27.06,27.06,0,0,0-6.17,1.53L33.65,51.7a3,3,0,0,0-4.1-1.1l-1.73,1a3,3,0,0,0-1.1,4.1l1.12,1.94A27.6,27.6,0,0,0,23.27,62L21.2,60.85A3,3,0,0,0,17.1,62l-1,1.73a3,3,0,0,0,1.1,4.1l1.93,1.11A27.88,27.88,0,0,0,17.37,75H15a3,3,0,0,0-3,3v1H10a1,1,0,0,0,0,2H81a1,1,0,0,0,0-2ZM69.3,63.45a1,1,0,0,1,1.36.37l1,1.73a1,1,0,0,1-.36,1.37L69.46,68c-.32-.69-.66-1.35-1-2a1.88,1.88,0,0,0-.14-.24c-.24-.43-.5-.85-.77-1.26ZM67,68a2,2,0,1,1-.38-1.17c.07.13.15.26.22.4A2,2,0,0,1,67,68ZM58,53.2a1,1,0,0,1,1.37-.36l1.73,1a1,1,0,0,1,.47.6,1.05,1.05,0,0,1-.1.76l-1.07,1.85A28.27,28.27,0,0,0,56.93,55ZM43,50a1,1,0,0,1,1-1h2a1,1,0,0,1,1,1v2.12C46.18,52,45.34,52,44.5,52c-.5,0-1,0-1.5,0ZM28.45,54.7a1,1,0,0,1,.37-1.36l1.73-1a1,1,0,0,1,1.37.36L33,54.54a26.46,26.46,0,0,0-3.5,1.94ZM44.5,54A25.49,25.49,0,0,1,64.75,64a4,4,0,1,0,3.52,6.26A25.2,25.2,0,0,1,70,79H58.86a4,4,0,0,0-7.72,0H38.86a4,4,0,0,0-7.72,0H19a25.44,25.44,0,0,1,2.18-9.83A4,4,0,1,0,25,64a4.07,4.07,0,0,0-.79.08A25.46,25.46,0,0,1,44.5,54ZM56.72,79H53.28a2,2,0,0,1,3.44,0Zm-20,0H33.28a2,2,0,0,1,3.44,0ZM25,66a2,2,0,1,1-2,2A2,2,0,0,1,25,66Zm-6.8,0a1,1,0,0,1-.36-1.37l1-1.73a1,1,0,0,1,.6-.47,1.05,1.05,0,0,1,.76.1l1.85,1.07A28.27,28.27,0,0,0,20,67.07ZM14,78a1,1,0,0,1,1-1h2.12c-.06.66-.1,1.33-.11,2H14Zm58,1c0-.33,0-.67,0-1h2a1,1,0,0,1,1,1Z"/><path d="M90,79H86a1,1,0,0,0,0,2h4a1,1,0,0,0,0-2Z"/><path d="M45,72a4,4,0,1,0-4-4A4,4,0,0,0,45,72Zm0-6a2,2,0,1,1-2,2A2,2,0,0,1,45,66Z"/><path d="M63.82,33.67A2.86,2.86,0,1,0,61,30.81,2.87,2.87,0,0,0,63.82,33.67Zm0-3.72a.86.86,0,1,1-.86.86A.87.87,0,0,1,63.82,30Z"/><path d="M76.2,33.67a2.86,2.86,0,1,0-2.86-2.86A2.87,2.87,0,0,0,76.2,33.67Zm0-3.72a.86.86,0,1,1-.86.86A.87.87,0,0,1,76.2,30Z"/><path d="M70,26.24a2.86,2.86,0,1,0-2.86-2.86A2.87,2.87,0,0,0,70,26.24Zm0-3.72a.86.86,0,1,1-.86.86A.87.87,0,0,1,70,22.52Z"/><path d="M70,41.1a2.86,2.86,0,1,0-2.86-2.86A2.87,2.87,0,0,0,70,41.1Zm0-3.72a.86.86,0,1,1-.86.86A.87.87,0,0,1,70,37.38Z"/><path d="M83.45,41.13a17.23,17.23,0,0,0,3.32-7.26h1A2.24,2.24,0,0,0,90,31.63V30.39a2.24,2.24,0,0,0-2.24-2.24h-.83a17.29,17.29,0,0,0-2-6.11,3.62,3.62,0,0,0-.2-.33c-.21-.35-.41-.69-.63-1l.72-.72a2.23,2.23,0,0,0,0-3.17l-.87-.87a2.23,2.23,0,0,0-3.17,0l-.65.65a17.3,17.3,0,0,0-7.23-3.18V12.24A2.24,2.24,0,0,0,70.63,10H69.39a2.24,2.24,0,0,0-2.24,2.24V13.3a17.5,17.5,0,0,0-7.26,2.83L59,15.21a2.29,2.29,0,0,0-3.17,0l-.87.87a2.23,2.23,0,0,0,0,3.17l.85.85a17.2,17.2,0,0,0-3.15,7H51.24A2.24,2.24,0,0,0,49,29.37v1.24a2.24,2.24,0,0,0,2.24,2.24h1.23a17.35,17.35,0,0,0,2.7,7.21l-1,1a2.23,2.23,0,0,0,0,3.17l.87.87a2.23,2.23,0,0,0,3.17,0l.82-.82a17.1,17.1,0,0,0,7.06,3.28v1.23A2.24,2.24,0,0,0,68.37,51h1.24a2.24,2.24,0,0,0,2.24-2.24v-1A17.33,17.33,0,0,0,79.26,45l.77.76a2.23,2.23,0,0,0,3.17,0l.87-.87a2.23,2.23,0,0,0,0-3.17Zm-2.06-2a.86.86,0,1,1,.86-.86A.87.87,0,0,1,81.39,39.1Zm6.37-9a.24.24,0,0,1,.24.24v1.24a.24.24,0,0,1-.24.24H87c0-.46.06-.91.06-1.37,0-.12,0-.23,0-.35Zm-4.51-6.77a.86.86,0,1,1-.86-.86.83.83,0,0,1,.71.41,1,1,0,0,1,.08.14A.78.78,0,0,1,83.25,23.38Zm-1.08-6a.24.24,0,0,1,.33,0l.88.88a.21.21,0,0,1,.07.16.21.21,0,0,1-.07.17l-.55.56c-.38-.44-.78-.85-1.19-1.24Zm-13-5.1a.24.24,0,0,1,.24-.24h1.24a.24.24,0,0,1,.24.24v.91c-.39,0-.78-.05-1.17-.05l-.55,0ZM56.34,17.83a.22.22,0,0,1-.07-.17.21.21,0,0,1,.07-.16l.88-.88a.2.2,0,0,1,.33,0l.76.75c-.44.38-.85.78-1.24,1.19Zm1.29,4.69a.86.86,0,1,1-.86.86A.87.87,0,0,1,57.63,22.52Zm-6.39,8.33a.24.24,0,0,1-.24-.24V29.37a.24.24,0,0,1,.24-.24h1.12c0,.46-.06.91-.06,1.37,0,.12,0,.23,0,.35ZM55.31,25A2.85,2.85,0,1,0,58,20.56a15.38,15.38,0,0,1,23.6.11,2.85,2.85,0,1,0,2.71,4.85,15.26,15.26,0,0,1-.47,11.18,2.85,2.85,0,1,0-2.89,4.35,15.35,15.35,0,0,1-22.36,0h.09a2.86,2.86,0,0,0,0-5.72,2.83,2.83,0,0,0-2.7,2A15.24,15.24,0,0,1,54.3,30.5,15.48,15.48,0,0,1,55.31,25Zm2.46,13.2a.86.86,0,1,1,.86.86A.87.87,0,0,1,57.77,38.24Zm-.94,5.42a.21.21,0,0,1-.33,0l-.88-.88a.21.21,0,0,1-.07-.16.21.21,0,0,1,.07-.17l.76-.77q.55.66,1.17,1.26Zm13,5.1a.24.24,0,0,1-.24.24H68.37a.24.24,0,0,1-.24-.24v-.93c.52,0,1,.07,1.57.07h.15ZM82.66,43.5l-.88.88a.2.2,0,0,1-.33,0l-.57-.56q.66-.55,1.26-1.17l.52.52a.22.22,0,0,1,.07.17A.21.21,0,0,1,82.66,43.5Z"/></g></svg>